<mxfile host="65bd71144e">
    <diagram id="pQGSIZJqNdxmLpVz4rNH" name="Page-1">
        <mxGraphModel dx="1940" dy="800" grid="1" gridSize="10" guides="1" tooltips="1" connect="1" arrows="1" fold="1" page="1" pageScale="1" pageWidth="850" pageHeight="1100" math="0" shadow="0">
            <root>
                <mxCell id="0"/>
                <mxCell id="1" parent="0"/>
                <mxCell id="2" value="" style="shape=cube;whiteSpace=wrap;html=1;boundedLbl=1;backgroundOutline=1;darkOpacity=0.05;darkOpacity2=0.1;size=110;direction=east;flipH=1;fillColor=#ffe6cc;strokeColor=#d79b00;" vertex="1" parent="1">
                    <mxGeometry x="71" y="96" width="120" height="420" as="geometry"/>
                </mxCell>
                <mxCell id="3" value="" style="shape=cube;whiteSpace=wrap;html=1;boundedLbl=1;backgroundOutline=1;darkOpacity=0.05;darkOpacity2=0.1;size=110;direction=east;flipH=1;fillColor=#ffe6cc;strokeColor=#d79b00;" vertex="1" parent="1">
                    <mxGeometry x="91" y="96" width="120" height="420" as="geometry"/>
                </mxCell>
                <mxCell id="4" value="" style="shape=cube;whiteSpace=wrap;html=1;boundedLbl=1;backgroundOutline=1;darkOpacity=0.05;darkOpacity2=0.1;size=70;direction=east;flipH=1;fillColor=#f8cecc;strokeColor=#b85450;" vertex="1" parent="1">
                    <mxGeometry x="117" y="165" width="109" height="286" as="geometry"/>
                </mxCell>
                <mxCell id="7" value="" style="shape=cube;whiteSpace=wrap;html=1;boundedLbl=1;backgroundOutline=1;darkOpacity=0.05;darkOpacity2=0.1;size=40;direction=east;flipH=1;fillColor=#e51400;strokeColor=#B20000;fontColor=#ffffff;" vertex="1" parent="1">
                    <mxGeometry x="168" y="210" width="82" height="220" as="geometry"/>
                </mxCell>
                <mxCell id="13" value="" style="shape=cube;whiteSpace=wrap;html=1;boundedLbl=1;backgroundOutline=1;darkOpacity=0.05;darkOpacity2=0.1;size=20;direction=east;flipH=1;fillColor=#cdeb8b;strokeColor=#36393d;" vertex="1" parent="1">
                    <mxGeometry x="275" y="620" width="35" height="80" as="geometry"/>
                </mxCell>
                <mxCell id="26" value="&lt;div&gt;&lt;ul&gt;&lt;li&gt;&lt;span&gt;VGG16&lt;/span&gt;&lt;/li&gt;&lt;li&gt;&lt;span&gt;MobileNetV2&lt;/span&gt;&lt;/li&gt;&lt;li&gt;&lt;span&gt;EfficientNetB0&lt;/span&gt;&lt;/li&gt;&lt;li&gt;&lt;span&gt;RestNet50&lt;/span&gt;&lt;/li&gt;&lt;li&gt;&lt;span&gt;Dense121&lt;/span&gt;&lt;/li&gt;&lt;/ul&gt;&lt;/div&gt;" style="text;html=1;strokeColor=none;fillColor=none;align=center;verticalAlign=middle;whiteSpace=wrap;rounded=0;glass=0;fontStyle=0" vertex="1" parent="1">
                    <mxGeometry x="8.5" y="69.94" width="175" height="40" as="geometry"/>
                </mxCell>
                <mxCell id="27" value="&lt;b&gt;GAP 2D&lt;/b&gt;" style="text;html=1;strokeColor=none;fillColor=none;align=center;verticalAlign=middle;whiteSpace=wrap;rounded=0;" vertex="1" parent="1">
                    <mxGeometry x="191" y="141" width="84" height="30" as="geometry"/>
                </mxCell>
                <mxCell id="34" value="224 x 224 x 3" style="text;html=1;strokeColor=none;fillColor=none;align=center;verticalAlign=middle;whiteSpace=wrap;rounded=0;" vertex="1" parent="1">
                    <mxGeometry x="41" y="516" width="99" height="30" as="geometry"/>
                </mxCell>
                <mxCell id="46" value="Global Average Pooling 2D" style="text;html=1;strokeColor=none;fillColor=none;align=left;verticalAlign=middle;whiteSpace=wrap;rounded=0;fontStyle=1" vertex="1" parent="1">
                    <mxGeometry x="323" y="117" width="166" height="23.88" as="geometry"/>
                </mxCell>
                <mxCell id="52" value="" style="shape=cube;whiteSpace=wrap;html=1;boundedLbl=1;backgroundOutline=1;darkOpacity=0.05;darkOpacity2=0.1;size=30;rotation=0;flipV=0;flipH=1;fillColor=#eeeeee;strokeColor=#36393d;" vertex="1" parent="1">
                    <mxGeometry x="216" y="240" width="44" height="170" as="geometry"/>
                </mxCell>
                <mxCell id="94" value="" style="edgeStyle=none;html=1;" edge="1" parent="1" source="54" target="56">
                    <mxGeometry relative="1" as="geometry"/>
                </mxCell>
                <mxCell id="54" value="Metadata features&lt;div&gt;&lt;ul&gt;&lt;li&gt;Sex&lt;/li&gt;&lt;li&gt;Age&lt;/li&gt;&lt;li&gt;Localisation&lt;/li&gt;&lt;/ul&gt;&lt;/div&gt;" style="whiteSpace=wrap;html=1;aspect=fixed;fillColor=#eeeeee;strokeColor=#36393d;fontFamily=Courier New;fontStyle=1" vertex="1" parent="1">
                    <mxGeometry x="-119" y="600" width="140" height="140" as="geometry"/>
                </mxCell>
                <mxCell id="56" value="Preprocessing" style="rounded=1;whiteSpace=wrap;html=1;fontStyle=1;dashed=1;fillColor=#eeeeee;strokeColor=#36393d;" vertex="1" parent="1">
                    <mxGeometry x="52" y="640" width="164" height="60" as="geometry"/>
                </mxCell>
                <mxCell id="57" value="p = 0.5" style="text;html=1;strokeColor=none;fillColor=none;align=center;verticalAlign=middle;whiteSpace=wrap;rounded=0;" vertex="1" parent="1">
                    <mxGeometry x="140" y="426" width="99" height="30" as="geometry"/>
                </mxCell>
                <mxCell id="58" value="Dense 512 + ReLU" style="text;html=1;strokeColor=none;fillColor=none;align=center;verticalAlign=middle;whiteSpace=wrap;rounded=0;" vertex="1" parent="1">
                    <mxGeometry x="216" y="410" width="124" height="30" as="geometry"/>
                </mxCell>
                <mxCell id="60" value="Dense 128 + ReLU" style="text;html=1;strokeColor=none;fillColor=none;align=center;verticalAlign=middle;whiteSpace=wrap;rounded=0;" vertex="1" parent="1">
                    <mxGeometry x="183.5" y="750" width="109" height="30" as="geometry"/>
                </mxCell>
                <mxCell id="61" value="" style="shape=cube;whiteSpace=wrap;html=1;boundedLbl=1;backgroundOutline=1;darkOpacity=0.05;darkOpacity2=0.1;size=30;rotation=0;flipV=0;flipH=1;fillColor=#eeeeee;strokeColor=#36393d;" vertex="1" parent="1">
                    <mxGeometry x="226" y="595" width="44" height="150" as="geometry"/>
                </mxCell>
                <mxCell id="62" value="" style="shape=cube;whiteSpace=wrap;html=1;boundedLbl=1;backgroundOutline=1;darkOpacity=0.05;darkOpacity2=0.1;size=40;direction=east;flipH=1;fillColor=#e51400;strokeColor=#B20000;fontColor=#ffffff;" vertex="1" parent="1">
                    <mxGeometry x="296" y="610" width="54" height="100" as="geometry"/>
                </mxCell>
                <mxCell id="63" value="p = 0.3" style="text;html=1;strokeColor=none;fillColor=none;align=center;verticalAlign=middle;whiteSpace=wrap;rounded=0;" vertex="1" parent="1">
                    <mxGeometry x="282" y="715" width="46.5" height="15" as="geometry"/>
                </mxCell>
                <mxCell id="64" value="" style="shape=cube;whiteSpace=wrap;html=1;boundedLbl=1;backgroundOutline=1;darkOpacity=0.05;darkOpacity2=0.1;size=30;rotation=0;flipV=0;flipH=1;fillColor=#eeeeee;strokeColor=#36393d;" vertex="1" parent="1">
                    <mxGeometry x="328.5" y="617.5" width="44" height="105" as="geometry"/>
                </mxCell>
                <mxCell id="65" value="" style="shape=cube;whiteSpace=wrap;html=1;boundedLbl=1;backgroundOutline=1;darkOpacity=0.05;darkOpacity2=0.1;size=20;direction=east;flipH=1;fillColor=#cdeb8b;strokeColor=#36393d;" vertex="1" parent="1">
                    <mxGeometry x="350" y="630" width="35" height="80" as="geometry"/>
                </mxCell>
                <mxCell id="78" value="" style="edgeStyle=none;html=1;" edge="1" parent="1" source="66">
                    <mxGeometry relative="1" as="geometry">
                        <mxPoint x="580" y="471.94351190476186" as="targetPoint"/>
                    </mxGeometry>
                </mxCell>
                <mxCell id="66" value="" style="verticalLabelPosition=bottom;shadow=0;dashed=0;align=center;html=1;verticalAlign=top;shape=mxgraph.electrical.abstract.summation_point;" vertex="1" parent="1">
                    <mxGeometry x="496" y="446.94" width="50" height="50" as="geometry"/>
                </mxCell>
                <mxCell id="68" value="" style="endArrow=classic;html=1;rounded=0;strokeWidth=3;edgeStyle=orthogonalEdgeStyle;" edge="1" parent="1" source="52" target="66">
                    <mxGeometry width="50" height="50" relative="1" as="geometry">
                        <mxPoint x="945" y="230" as="sourcePoint"/>
                        <mxPoint x="945" y="355" as="targetPoint"/>
                    </mxGeometry>
                </mxCell>
                <mxCell id="69" value="" style="endArrow=classic;html=1;rounded=0;strokeWidth=3;edgeStyle=orthogonalEdgeStyle;entryX=0.5;entryY=1;entryDx=0;entryDy=0;entryPerimeter=0;elbow=vertical;" edge="1" parent="1" target="66">
                    <mxGeometry width="50" height="50" relative="1" as="geometry">
                        <mxPoint x="372.5" y="669" as="sourcePoint"/>
                        <mxPoint x="630.5" y="776" as="targetPoint"/>
                    </mxGeometry>
                </mxCell>
                <mxCell id="71" value="" style="shape=cube;whiteSpace=wrap;html=1;boundedLbl=1;backgroundOutline=1;darkOpacity=0.05;darkOpacity2=0.1;size=7;direction=east;flipH=1;fillColor=#e51400;strokeColor=#B20000;fontColor=#ffffff;" vertex="1" parent="1">
                    <mxGeometry x="282" y="89.94" width="30" height="20" as="geometry"/>
                </mxCell>
                <mxCell id="72" value="" style="shape=cube;whiteSpace=wrap;html=1;boundedLbl=1;backgroundOutline=1;darkOpacity=0.05;darkOpacity2=0.1;size=7;direction=east;flipH=1;fillColor=#f8cecc;strokeColor=#b85450;" vertex="1" parent="1">
                    <mxGeometry x="282" y="119.94" width="30" height="20" as="geometry"/>
                </mxCell>
                <mxCell id="73" value="" style="shape=cube;whiteSpace=wrap;html=1;boundedLbl=1;backgroundOutline=1;darkOpacity=0.05;darkOpacity2=0.1;size=7;direction=east;flipH=1;fillColor=#eeeeee;strokeColor=#36393d;" vertex="1" parent="1">
                    <mxGeometry x="282" y="149.94" width="30" height="20" as="geometry"/>
                </mxCell>
                <mxCell id="74" value="" style="shape=cube;whiteSpace=wrap;html=1;boundedLbl=1;backgroundOutline=1;darkOpacity=0.05;darkOpacity2=0.1;size=7;direction=east;flipH=1;fillColor=#d5e8d4;strokeColor=#82b366;" vertex="1" parent="1">
                    <mxGeometry x="282" y="179.94" width="30" height="20" as="geometry"/>
                </mxCell>
                <mxCell id="75" value="Drop out" style="text;html=1;strokeColor=none;fillColor=none;align=left;verticalAlign=middle;whiteSpace=wrap;rounded=0;fontStyle=1" vertex="1" parent="1">
                    <mxGeometry x="323" y="87" width="138" height="23.88" as="geometry"/>
                </mxCell>
                <mxCell id="76" value="Dense + ReLU" style="text;html=1;strokeColor=none;fillColor=none;align=left;verticalAlign=middle;whiteSpace=wrap;rounded=0;fontStyle=1" vertex="1" parent="1">
                    <mxGeometry x="323" y="148.06" width="138" height="23.88" as="geometry"/>
                </mxCell>
                <mxCell id="77" value="softmax" style="text;html=1;strokeColor=none;fillColor=none;align=left;verticalAlign=middle;whiteSpace=wrap;rounded=0;fontStyle=1" vertex="1" parent="1">
                    <mxGeometry x="322" y="176.06" width="138" height="23.88" as="geometry"/>
                </mxCell>
                <mxCell id="79" value="" style="shape=cube;whiteSpace=wrap;html=1;boundedLbl=1;backgroundOutline=1;darkOpacity=0.05;darkOpacity2=0.1;size=30;rotation=0;flipV=0;flipH=1;fillColor=#eeeeee;strokeColor=#36393d;" vertex="1" parent="1">
                    <mxGeometry x="576" y="360" width="44" height="220" as="geometry"/>
                </mxCell>
                <mxCell id="80" value="Dense 256&amp;nbsp; + ReLU" style="text;html=1;align=center;verticalAlign=middle;resizable=0;points=[];autosize=1;strokeColor=none;fillColor=none;" vertex="1" parent="1">
                    <mxGeometry x="525" y="578" width="130" height="30" as="geometry"/>
                </mxCell>
                <mxCell id="81" value="" style="shape=cube;whiteSpace=wrap;html=1;boundedLbl=1;backgroundOutline=1;darkOpacity=0.05;darkOpacity2=0.1;size=20;direction=east;flipH=1;fillColor=#cdeb8b;strokeColor=#36393d;" vertex="1" parent="1">
                    <mxGeometry x="603" y="401" width="35" height="139" as="geometry"/>
                </mxCell>
                <mxCell id="82" value="" style="shape=cube;whiteSpace=wrap;html=1;boundedLbl=1;backgroundOutline=1;darkOpacity=0.05;darkOpacity2=0.1;size=40;direction=east;flipH=1;fillColor=#e51400;strokeColor=#B20000;fontColor=#ffffff;" vertex="1" parent="1">
                    <mxGeometry x="620" y="416" width="54" height="100" as="geometry"/>
                </mxCell>
                <mxCell id="83" value="p = 0.4" style="text;html=1;strokeColor=none;fillColor=none;align=center;verticalAlign=middle;whiteSpace=wrap;rounded=0;" vertex="1" parent="1">
                    <mxGeometry x="651.5" y="496.94" width="46.5" height="15" as="geometry"/>
                </mxCell>
                <mxCell id="84" value="Concatenation&lt;div&gt;&lt;br&gt;&lt;/div&gt;" style="text;html=1;align=center;verticalAlign=middle;whiteSpace=wrap;rounded=0;fontStyle=1" vertex="1" parent="1">
                    <mxGeometry x="401" y="456.94" width="60" height="30" as="geometry"/>
                </mxCell>
                <mxCell id="85" value="" style="shape=cube;whiteSpace=wrap;html=1;boundedLbl=1;backgroundOutline=1;darkOpacity=0.05;darkOpacity2=0.1;size=7;direction=east;flipH=1;fillColor=#cdeb8b;strokeColor=#36393d;" vertex="1" parent="1">
                    <mxGeometry x="282" y="210" width="30" height="20" as="geometry"/>
                </mxCell>
                <mxCell id="86" value="BactchNormalisation" style="text;html=1;strokeColor=none;fillColor=none;align=left;verticalAlign=middle;whiteSpace=wrap;rounded=0;fontStyle=1" vertex="1" parent="1">
                    <mxGeometry x="323" y="206.12" width="138" height="23.88" as="geometry"/>
                </mxCell>
                <mxCell id="88" value="" style="shape=cube;whiteSpace=wrap;html=1;boundedLbl=1;backgroundOutline=1;darkOpacity=0.05;darkOpacity2=0.1;size=3;direction=east;flipH=1;fillColor=#d5e8d4;strokeColor=#82b366;" vertex="1" parent="1">
                    <mxGeometry x="670" y="450" width="40" height="20" as="geometry"/>
                </mxCell>
                <mxCell id="89" value="Dense 7 + Softmax" style="text;html=1;strokeColor=none;fillColor=none;align=center;verticalAlign=middle;whiteSpace=wrap;rounded=0;" vertex="1" parent="1">
                    <mxGeometry x="710" y="451" width="110" height="15" as="geometry"/>
                </mxCell>
                <mxCell id="92" style="edgeStyle=none;html=1;" edge="1" parent="1" source="91">
                    <mxGeometry relative="1" as="geometry">
                        <mxPoint x="70" y="348.59000000000015" as="targetPoint"/>
                    </mxGeometry>
                </mxCell>
                <mxCell id="91" value="" style="shape=image;verticalLabelPosition=bottom;labelBackgroundColor=default;verticalAlign=top;aspect=fixed;imageAspect=0;image=data:image/jpeg,/9j/4AAQSkZJRgABAQAAAQABAAD/2wCEAAkGBxISEhUSExIVFRUWFhUXFRgVFRUVFxUXGBcWFhUXFRUYHSggGB0lHRUVITEhJSkrLi4uFx8zODMtNygtLisBCgoKDg0OGhAQGi0dHx0tLS0tLS0tLS0tLS0tLS0tLS0tLS0tLS0tLS0tLS0tLS0tLS0tLS0tLS0tLS0tLS0tLf/AABEIAM8A9AMBIgACEQEDEQH/xAAbAAEAAwEBAQEAAAAAAAAAAAAAAQIDBAYFB//EADEQAAIBAQUGBQQCAwEAAAAAAAABAhEDBBIh8DFBUWFxkQWBobHRBhPB4TLxIlJTQv/EABoBAQEBAQEBAQAAAAAAAAAAAAABAgMEBQb/xAAjEQEAAwABAwUAAwAAAAAAAAAAAQIRAxIhMQQTFEFRImFx/9oADAMBAAIRAxEAPwD9sAAEAkACCSAAAAAAAACAAAAAAgAAAAAAAAABQAACAAAAAAAC4AKgQSQAAAUAAAAAAARAAACCSAAAAAAAAAAAChBJAAAAAAAAAFwAVAgAAAAoACAAAAACBBJAAAAAAAAAAHPeb7Z2f8pJe/Y+JevqmK/hCvN5GZtEeW68dreIejB4m0+qbZ7FFeRRfVNutuHsY96rr8a73JB4yP1Za/6xfc2j9WT/AOce7L7tU9i71oPLL6pl/wA1yzfwRa/VMv8AWKfmy+5VPZv+PVGNveoQ/lOK6tHiL59RW0v/AFRcsj5VpeJSdW2znbniPDrX0sz5l7qf1Jd06Vb6IHgcDBz+RZ2+LT9frIBB7HzgAAAAFAARAAAACAJIAAAztbaMc26Hzr14wl/FdyTMQ1FZnw+o2c1vf7OG2XbM83e/E5y2v8Hz7S8HOeX8dq8Ez5ejvXj6X8Y9z5d78dtXknTpkfJdoYTtDlbll6K8NY+l7e3ctrqzCQTKyZymXeIQZToWfMq4ojRFl1amNCaDUau15kSlkZSbIUiasQtiJxFZMopaZGmytGDJS1UENfr5AB9R8QAAAABQAEQAAAgiUktpwXm/0yQmcWImXbaWqW1nzbz4k/8Azkj595v3Fny7xe6nK3JjvTh3y673fOLqz5treDCcih55vMvXWkQmdo30IIkyjkY10xLZVy4kKRWRNaiENlFIs4lWqbjOtYrJB8xJ76FRphJkOpFWyGy6dKW/MpTmXRR5E0wbIc0Gq7jNy5DVzR2gI+4t+QC4/ZgAfUfCAAAAAAAgAY3i8KKKXu8qK5nw71eqsxa2OlKTZ0Xm9t1zPmXi9GNreTjtZnC13rpxLWtqc7mJNshxOEy9EVxWoxChDRnW8VaTDRH26l5wZFxTCRhzNH6COZGsUcTOUOZtaIrKOWwEMHsLQeRoluK4OJFZ1a2GdK5nRKhSYHO4hxNcPInDQKxwlGat1I+3vAxfl2BdwA0x+wAA+s+AAAAAQAOe93hRXM0t7XCj4HiN6zMWtkOlKdUqXu88WfMtraotbU52eW1nupSIGZs0KSRzl1iFKDCXFDMtQxQki5VPOhHTEUJVSZqhVKuwzrUQmUSLOBrGLRRtlT+k2ka7DJR4m0UXcXuGaeOznUSJxN3ZlPtDDXO4EyR1fbMZk8G6xTrtKzs6m7gtpm0RWODdUpI3lEzcArJwqDXA+AA/VwAfXfnwgAARJ0JPn+KXrCqEmcarGzji8SvmZ8S82redSb7a4ulTlbPJe+vfx8eQlEMioRydsS0VaJoSluI1EKxiTIukIwqRqGSgW+3yN4WJpgVB0k3cU7OuTNIWNDohZ79U2ZGlOW4sVS1/pyuBXAY3/wARs7LLfwW0yuXi1nab+/L2GNRFs12xsy0lTkb0Wti4lbWO7jX1y/PoXHPq2XHYyUm6PJOj6m7hu7fsXe6qCpHLfw27/VGkUl14kxq0xvZlKGtxjOzWzf0Op0etgn5a5iYSJcMoIpgOu0skzFw3IxMOsS5nZUDibziyk4mcXWMeZJonQgD9NAB9d8BAAApbWmFVPLeKXqr8z63jF6p/ijyt4tKs8/Nf6ev0/HvdSc6hFIh2h5de6I/F8RCIiaRiRcxaKLYAjSCKzuKqJokWglvL0NRBqsct5eWWaIRGunQrMrqKpy18HF4jeMEJT4bvboqnRs1690cfiL/xapk9Ikz2apXZeInb423XN0bfHPNrPhQv4J4a4WuNSy3LhtqdV4sYpulFXs+Dru3EXaVMltqtnOtBvZ6+iIexsJ1ST4LXY0lHdrh7nFcrSq5ZeeqnXrXqNeWYyVknVt9Q1X0XSgrRa5/srX+iImWzWttSJPYUxFohcTIrFLgWru8/YiGWzmQUlHMycas2UKEqy9SY1uOZwQOj7eqAYdT3gAPpviBnb2mGLfA0PjeP3qiw9zNpyNapXqnHwfEL1ibzOBsXm0RFmzwWnZfWpTIVtJlbKNdpeaJszLrE5DaMcjRIIsiuWkUaJEKJpQuJqFGu3YXpTXepFAq+tf71uNIN0z11K49tA41Js1t1TVQKVrrYzK0z6Pavc2plTyy5FZx17GWol5O/uKngxZ8OVfyc8f8AB0e/NrhR1PQ+I3CE6OUc65dVz3PL0Kw8Ohk8NXrcZeyOWM7ui6PJOnkdWOosrKi+PMs667mnlmYmSTyXyZRtVXDVVp59UXVd2tZGP2FiT7Pl1ItYj7Xb5dRCPYtQlMJqJPWuZZbCsSYgWbJS2lEy9QiXFskmMwa7M7L2oAPoPkKWs8Kb4HivFL3ik2eh+oL3hjhTzZ463mebnv8AT2+m4/thaKrqTZWudCl4m6UFys3SrPK+nEfx2XRZuvM3s4lbKySN6FhxtZMUaRRWKLLaVheJYqWRWRvIndXy6B5k4e+mUUrlrNENJ7e37J18kp/GvMKo2sunqSll78xy1w/RMl7bvb8EFJU2fjaUjCnD8urNONf1X+itQqJcPXXkT5EOXNE0yCjZVLiS661qgp6kFcJCWRfdroS0BkmTpktZhkaQkWceBC9iYsErIBPkCsvcFZyoqlj5Xj95w2dFteXkfQtORr5Na7OPPeL3vHNuuW7ofHtGb20jmpVnz7zsvscdYrC0VXadFlRIwSzOqziYhq09mkWXoUSNEzbkugiCyA0oSiIhmmU7CK5a2BMhgWTy7/mpRR115lYWmfsWrtWsuHqRcwcX6t9nn7EzdHVarmW/BnLd36FTUpa88mRLjrh7kxyI5a6hWThnv3l+ReTfnXWuZWC+dmuRGt0z1rkRKPYs5Za5FU/0EVS7As2GRdUWefUNVDEURpKLIgU/ZUSpUJM5RfEDTHumzyHjV7xzfBZI9F4teMFm+LyPFW8qs9PNbtjw+mps6xkiiVTTaaxikeSe76ETikI0NYIjCaKISZSol0VqWjErKYsvQrBULFSUplvgokTUrK2Ja4ZBozjurt309TRSKSr9lJ1RZySz6fkhumugSWtcgf6jFT8iXlrLXQpKGarxXbb8koLiK+mvgmufp6foa8iEwLP99gpDDQhASvgIPrpf0yI5EUT7lZJ65l2RHMEKuORRyo8janoZ76klqJSiVRb86lpxRUIjqgVbYCv/2Q==;" vertex="1" parent="1">
                    <mxGeometry x="-159" y="281.18" width="158.91" height="134.82" as="geometry"/>
                </mxCell>
                <mxCell id="93" style="edgeStyle=none;html=1;exitX=1;exitY=0.5;exitDx=0;exitDy=0;entryX=0.932;entryY=0.493;entryDx=0;entryDy=0;entryPerimeter=0;" edge="1" parent="1" source="56" target="61">
                    <mxGeometry relative="1" as="geometry"/>
                </mxCell>
                <mxCell id="95" value="&lt;span&gt;&lt;font&gt;Pretrained Model layers Finetuning of last layers&lt;/font&gt;&lt;/span&gt;&lt;div&gt;&lt;ul&gt;&lt;/ul&gt;&lt;/div&gt;&lt;div&gt;&lt;span&gt;&lt;font&gt;&lt;br&gt;&lt;/font&gt;&lt;/span&gt;&lt;/div&gt;" style="text;html=1;align=center;verticalAlign=middle;whiteSpace=wrap;rounded=0;fontStyle=1;fontSize=12;" vertex="1" parent="1">
                    <mxGeometry x="6" y="30" width="284" height="10" as="geometry"/>
                </mxCell>
            </root>
        </mxGraphModel>
    </diagram>
</mxfile>